<?xml version="1.0" encoding="UTF-8"?>
<svg id="Layer_1" data-name="Layer 1" xmlns="http://www.w3.org/2000/svg" version="1.1" viewBox="0 0 142 280.9">
  <g style="opacity: .6;">
    <rect x="1.4" y="11.8" width="8.4" height="5.6" style="fill: #fff; stroke-width: 0px;"/>
    <rect x="16.1" y="12.6" width="8.4" height="5.6" transform="translate(1.9 -2.3) rotate(6.7)" style="fill: #fff; stroke-width: 0px;"/>
    <rect x="30.5" y="15.2" width="8.4" height="5.6" transform="translate(5.1 -7.5) rotate(13.4)" style="fill: #fff; stroke-width: 0px;"/>
    <rect x="44.5" y="19.4" width="8.4" height="5.6" transform="translate(10.5 -15.3) rotate(20)" style="fill: #fff; stroke-width: 0px;"/>
    <rect x="58" y="25.2" width="8.4" height="5.6" transform="translate(19.2 -25) rotate(26.7)" style="fill: #fff; stroke-width: 0px;"/>
    <rect x="70.7" y="32.5" width="8.4" height="5.6" transform="translate(31.8 -35.4) rotate(33.4)" style="fill: #fff; stroke-width: 0px;"/>
    <rect x="82.4" y="41.3" width="8.4" height="5.6" transform="translate(48.6 -45.4) rotate(40)" style="fill: #fff; stroke-width: 0px;"/>
    <rect x="93.1" y="51.3" width="8.4" height="5.6" transform="translate(69.9 -53.8) rotate(46.7)" style="fill: #fff; stroke-width: 0px;"/>
    <rect x="102.5" y="62.6" width="8.4" height="5.6" transform="translate(95.5 -59.3) rotate(53.4)" style="fill: #fff; stroke-width: 0px;"/>
    <rect x="110.5" y="74.8" width="8.4" height="5.6" transform="translate(124.6 -60.6) rotate(60)" style="fill: #fff; stroke-width: 0px;"/>
    <rect x="117.1" y="87.9" width="8.4" height="5.6" transform="translate(156.6 -56.6) rotate(66.7)" style="fill: #fff; stroke-width: 0px;"/>
    <rect x="122.1" y="101.7" width="8.4" height="5.6" transform="translate(190.2 -46.5) rotate(73.4)" style="fill: #fff; stroke-width: 0px;"/>
    <rect x="125.5" y="115.9" width="8.4" height="5.6" transform="translate(224.2 -29.6) rotate(80)" style="fill: #fff; stroke-width: 0px;"/>
    <rect x="127.2" y="130.5" width="8.4" height="5.6" transform="translate(256.9 -5.6) rotate(86.7)" style="fill: #fff; stroke-width: 0px;"/>
    <rect x="127.2" y="145.1" width="8.4" height="5.6" transform="translate(286.7 25.5) rotate(93.4)" style="fill: #fff; stroke-width: 0px;"/>
    <rect x="125.5" y="159.7" width="8.4" height="5.6" transform="translate(312.2 63.1) rotate(100)" style="fill: #fff; stroke-width: 0px;"/>
    <rect x="122.1" y="174" width="8.4" height="5.6" transform="translate(331.8 106.5) rotate(106.7)" style="fill: #fff; stroke-width: 0px;"/>
    <rect x="117.1" y="187.7" width="8.4" height="5.6" transform="translate(344.2 154.7) rotate(113.4)" style="fill: #fff; stroke-width: 0px;"/>
    <rect x="110.5" y="200.8" width="8.4" height="5.6" transform="translate(348.3 206.2) rotate(120)" style="fill: #fff; stroke-width: 0px;"/>
    <rect x="102.4" y="213.1" width="8.4" height="5.6" transform="translate(343.4 259.3) rotate(126.7)" style="fill: #fff; stroke-width: 0px;"/>
    <rect x="93" y="224.3" width="8.4" height="5.6" transform="translate(329 312.3) rotate(133.4)" style="fill: #fff; stroke-width: 0px;"/>
    <rect x="82.3" y="234.3" width="8.4" height="5.6" transform="translate(305.2 363.2) rotate(140)" style="fill: #fff; stroke-width: 0px;"/>
    <rect x="70.6" y="243.1" width="8.4" height="5.6" transform="translate(272.3 410.3) rotate(146.7)" style="fill: #fff; stroke-width: 0px;"/>
    <rect x="57.9" y="250.4" width="8.4" height="5.6" transform="translate(231.1 451.6) rotate(153.4)" style="fill: #fff; stroke-width: 0px;"/>
    <rect x="44.4" y="256.2" width="8.4" height="5.6" transform="translate(182.8 485.7) rotate(160)" style="fill: #fff; stroke-width: 0px;"/>
    <rect x="30.4" y="260.4" width="8.4" height="5.6" transform="translate(128.8 511.3) rotate(166.7)" style="fill: #fff; stroke-width: 0px;"/>
    <rect x="16" y="262.9" width="8.4" height="5.6" transform="translate(70.9 527.3) rotate(173.4)" style="fill: #fff; stroke-width: 0px;"/>
    <rect x="1.3" y="263.8" width="8.4" height="5.6" transform="translate(11 533.1) rotate(-180)" style="fill: #fff; stroke-width: 0px;"/>
  </g>
</svg>