<?xml version="1.0" encoding="UTF-8"?>
<svg id="Layer_1" data-name="Layer 1" xmlns="http://www.w3.org/2000/svg" version="1.1" viewBox="0 0 134.4 415.9">
  <path d="M128.1,268.1c-.6-2.7.1-5.6-1-8.3h0c0-.8,0-1.6,0-2.5,0-4.1,0-8.3-.6-12.3,0-.6-.2-1.2-.3-1.8l.2-.3-.2-.3c0-3.1.2-6.3-.9-9.3h0c0-.8,0-1.7-.2-2.5.2-2,0-4-.9-5.9.4-1.9.6-3.9-.2-5.8-3.9-9.2-5.1-18.9-5.6-28.7-.3-5.5-2.4-11.3.7-16.7,1.2-1.6,2.4-3.2.3-5-.5-2.9.4-6.1-1-8.9,0,0,0,0,0,0-.8-2.6.9-5.9-2.1-7.8.4-4.1-1.5-7.8-1.9-11.7-.4.8-.5,1.6-.6,2.4-.3-.8-.2-1.7.6-2.4,1.1-1.1,2-3,.9-3.9-4-3-2.5-7.5-3.4-11.3-1.9-8.1-2.7-16.3-2.3-24.7.3-7.7,0-15.3-3.9-22.3-.5-2.1-1.7-3.4-3.8-4-3.6-1.3-7.3-2.7-10.9-4h0c-2-1.3-4-2.5-6-3.8,0-.6-.2-1.1-1-.9-1.6-1.4-2-4.2-4.8-4.1,0-1.4-2.5-1-1.9-2.8,1.6-.5,2-2.1,2.8-3.2,1.3-.3,1-2.7,2.8-2.4,0,1.7.3,3.2,1.3,4.6,0,1,.4,2.3,1.3,2.2,1,0,1.1-1.5,1.2-2.3.2-5.2.3-10.4.5-15.5h0c.8-.8,1.1-1.8,1-2.9h0s0,0,0,0c1.1-1.8.7-4,1-6,0,0,0,0,0,0,.2-.7.2-1.4.3-2.1.1-.5.2-.9,0-1.2.3-6.1-2.9-10.9-7.6-15-7.3-6.3-18.8-8.6-25.4-1.6-6.6,4.1-9.7,10-9.6,17.8,0,2.4-.5,5,0,7.3,1.2,5.6-.8,11.9,3.7,16.7q3,3.2,0,0h0c0,1.1.1,2.2.2,3.3.4-.4.8-.7,1.1-1.1.9-.9,1.8-1.8,2.7-2.6.4,0,.7,0,1,0,1.5.5,2.1,2.4,3.6,3-.9,1.4-2.5.8-3.8,1.2-.3,0-.6.2-.9.4-.9.1-1.7.2-2.6.3-.4,0-.7,0-1.1.2.5,1.8-.8,3.1-1,4.6-.3.2-.3.5-.2.8-3.7,3.6-8.6,5-13,7.5-10.2,5.9-16.2,14-16.3,26.2-2.4,8.3-1.6,17-3,25.4-1,1.9-2.5,3.7-2,6.1.7,5.7-.3,11.2-2.2,16.6-1.1,1-.8,2.3-.8,3.6h0c-.8.9-1,2.1-.8,3.2.9,6.3-.8,12.1-2.7,17.9-.7,2.2-2.3,4.9.6,7,3.9,3.2,5.4,7,5.2,12.3-.3,9.1.4,18.3.7,27.4,0,1.3,0,2.6,1,3.6,1.6,3.5,1.5,8.1,5.8,10.1.4.8,1,1.5,1.9,1.7,4.4,1.9,6.2,5.1,5.3,9.8-.1.7.4,1.5.6,2.3.4,5.9-.6,11.8,1.1,17.6-.3,4.5-.6,9-.9,13.5l-.2.3.2.3c-1,5-2,10.1-3,15.1-3,5.8-4.4,12.2-5.7,18.5-3.2,15,1,30-.9,45.2-1.4,11.1,1.6,22.6-1,33.8-1.1,9.6-.4,10.4,9.1,10,4.8-.2,9.7-.2,13.5-3.8,3.4-3.8,4.3-7.9.8-10.5-3.8-2.9-4.9-6.7-6.5-10.5-1.8-8.3,1.5-16.3,1.8-24.5.2-6.5,2.9-13,4.7-19.4,3.7-13.3,3.7-27.4,8-40.6,2.9-5.2,3.6-11,4.8-16.7,2.8-14.1,5.4-28.3,9.8-42,.4-1.4,0-4.1,3-3.1.1.6.2,1.3.3,1.9,4,13.1,7.6,26.2,8.7,40,.7,8,1.1,16.2,3.6,24-.3,4-.7,8.1-1,12.1-1.1,1.8-.6,3.8-.9,5.7-2.3,17.4,5.7,33.8,4.8,51.2-.4,7,1.7,14,1,21.1-.6,5.3-2.9,10.4-1.9,15.9-.7,2.3-.7,4.6.2,6.9,0,1.3,1.2,1.3,1.8,2h1.9c3.6,0,7.2,0,10.8,0,2.6-1,5.2-1.9,7.8-2.9,4.6-.2,8.9-1.5,13-3.6,2.7-1.3,4.5-3.4,4.7-6.3.2-3.2-2.6-4.4-5-5.2-4.1-1.4-7.7-3.6-11.1-6-2.8-1.9-5.1-4.5-1.7-8,.9-.9.9-1.7.2-2.5-2.4-2.9-1.9-6.4-1.9-9.8.7-4.5-1.7-8.7-1.1-13.4,2-18.4,3.2-36.8,1.2-55.4-1.1-9.6-.7-19.2,1.5-28.8,2.8-12.5,4.5-25.1,3.4-38h0c1.1-1.8,2.3-1.1,3.5-.2,2.3,13,3.9,26.1,5.2,39.3-.9,3.9.7,5.5,4.5,5,1.6-.2,3.2.2,4.6-.9.5-.3,1.1-.7,1.6-1,0,0,0-.1,0-.2,0-.3,0-.6,0-.9,0-.9.1-1.9.2-2.8,0,0,0-.1,0-.2h0ZM26.3,228.7c0-1.4.1-2.9-.6-4.1,0-.2-.2-.4-.4-.6-1.1-1,0-1.9.1-2.8.4-.7.4-1.4.4-2.2.2-1.3.5-2.6.7-3.9.9,1,1.7,2,2.6,3,0,0,0,0,0,0,0,1.6.2,3.2.2,4.8,0,2,0,3.9,0,5.9,0,.9,0,1.6-.4,2.2-.1.2-.3.4-.5.5-.3.2-.7.3-1.3.3-1.3-.7-.3-2.1-1-3h0ZM30.1,204.8c-.5.2-.9.2-1.3,0-.9-.4-1.5-1.6-2.5-1.6-.3-.6-.6-1.3-1-1.9-.5-6.5-.6-13,.3-19.5.4-.5.7-1,1-1.4.2-.2.3-.5.5-.7,2-2.1,1.2-4.6,1.1-7v-.8c1.8-3.9,2.5-8.1,2.8-12.4,0-.1,0-.3,0-.4.3-.3.7-.6,1-1,0-.9,0-1.8.1-2.7.3,0,.5,0,.8,0,0,0,.2,0,.3,0,.2,0,.4,0,.6,0-.2,3.2,1,6.6-.9,9.7.3,2.5-1.4,4.5-1.6,6.9,0,.9-.1,1.9,0,2.7,0,.7.3,1.2.8,1.7.4.3,1,.5,1.7.6,1.6,1.6.7,3.7.9,5.6-.3.5-.4,1.1-.4,1.7,0,0,0,.2,0,.3-.5,2.3-1,4.6-1.6,7h0s0,0,0,.1c-.2,1-.5,2.1-.7,3.1-.7,3.4-1.5,6.9-2.2,10.3h0ZM104.6,188.6h0c1.3-1.8,1.4-3.5,0-5.2,0-.3,0-.6,0-.8.5-.1.9,0,1.2,0,1.3.3,1.2,2,1.6,3,3.3,7.1,3.8,14.6,2.9,22.2-.4.1-.7.2-1,.2-2,.2-1.8-1.6-1.9-3.4,0-5,.6-10.2-2.3-14.7-.2-.2-.3-.5-.5-.7.2-.2.2-.4,0-.6h0ZM116.4,151.9h0c-.2-.6-.4-1.2-.5-1.8.2.6.4,1.2.5,1.8h0Z" style="fill: #151515; stroke-width: 0px;"/>
</svg>