<?xml version="1.0" encoding="UTF-8"?>
<svg id="Layer_1" data-name="Layer 1" xmlns="http://www.w3.org/2000/svg" version="1.1" viewBox="0 0 629.6 634.9">
  <path d="M629,522.4c-10.6-14.9-26.1-20-41.3-27.5-20.8-5.9-46.9-4.4-59-25.8-10.9-9.6-11-26.7-20.3-38.5-10.5-23.1-62.1-25.3-22.8-47.7,32.9-27.2,82.3-28.1,112.9-55.3-26-4.7-56.6,7.6-81.9,16.2,1.6,0,3.1-.2,4.6-.6-34,10.1-16.5,11.3-20.8-15.2,0,0,0,0,0,0-2.6-.6-6.4-1.8-8.3-2.1-10.5-8.3-46.6,22.2-65.1,23.3-29.6,6.1-85.7,28.1-34.1-16.7,33.2-24.7,56.3-68.8,98.5-80.6,7-3.6,13.6,8,18.8,1.5,5.3-3,10.1,9.9,15.4,4.7,6.1-6.7-27-13.4-16.7-19.7,7.2-1.1,14.4,1.2,20.5,5.1,3.9,3.2,8.1-3.7,2.9-5-4.4-2.1-19.5-9.3-6.9-8.8,1.6-.3,4.1-.5,2.1-3.3-4.5-6.6,10.4-1.7,8.5-8.1-1.4-3.9-4.6-.3-7.1-.1-7.2-2.1-12.6,3.2-18.9,4.6-11.3-.6-21.9,4.8-33.8,7.4-15.9,6.4-23.1,20.2-33.6,29.1-3.9,3.9-10.2,5.7-11.2,12.2-1.6.1-4.6-2.1-3.6,2.2-7.8,8.3-20.6,12-28.6,19-1.3-.7-2.5,1.5-3.9,1.5-1.5-6.1-5,4-8.8,5.3-5.2-2.6-11.5,3.7-16,6.4-2.3.5-1.5-3.7-4.1-2.7,32.4-85.6,136.5-104.7,186.3-173.6,17.1-45.6-106.1,65.7-118.3,69.9-49.9,27.3-70,55-94.6,104-16.7,1.4-33.9-9.4-46.2-19.5-2.9-3.8-4.9-13.4-9.5-13.9,0-3.5-4.1-5.2-4.1-8.5-14.9-17.2-11.3-49.2-1.9-69.2,6.5,1.2,8.7-7.4,14.1,1.9,9.9,6.8,5.3-8-2.5-9.2-11.3-3.8,3.2-15.4,9.5-17.5,4.5-2.9,14.1,9.9,12.1.2-5.6-8.5-15.3-2.2-21.9-4.5-3.9-10.6,13.4-5.5,15.8-10.7-5.5-9.2-21.6,2.8-27.3,8.6-8.4-.8-15.4,9.2-12.7,16.9-.4-1.1-.8-2.2-1.1-3.2-10.1,22.5-18.5,57.1-8,79.3-1.4-2.1-3.5-.6-6.2-1.5,10.9.6-20.8-7.8-23.9-15.3,0-8.5,18-9.3,20.9-17.5.2-6.8-7.9-2.2-11.6-5-7.4-6.6-20.8,3-24.5,9.8-.8,2.6-.9,5.8-1.7,8.6-1.1.2-3-.7-2.9,1.4.6,21.8,27.1,26.1,39.7,39.3,24.4,18.9,6.9,52.2,13.8,76.5-2.8-1.3-8.5,2.9-7.8,7.2-9.6,9.9-16.6-7.5-25.7-11.7-4.8-7.2-9.1,2-8.8-3.9-2.3-4-9.4-5.4-12.3-10,2.8-1,2.2-2.1.2-3.4-20.4-37.6-51.5-32.4-86-43.1-2.7-10.5-15.8-15-21.3-24.3-2-2.9-3.5-6.4-7.4-7.6-7.8-17.3-6.4-38.3-13-56.4-1-6-9.2-8.5-8.4-14.6-8.2,3.6-9.9,16.3-9,24.2-2.5,23.4,6.6,45.4,14.3,66-2.9-1.6-7.4-.1-3.4,3.1,1.6,3.5-4.4,7.9,1.7,9.2,16.6,2.2,26,20.1,42.5,24.3,18.4,9.8,39.6,13.4,54.6,28.6,19.2,19.1,30,47.1,52.7,62,.5,1.2,2.1,3.1-.8,3-18.8,2.7-37.6.2-56.8,1.8-2-3.6.9-20.4-5.5-12.1,6-4.6-2.2-6.6-8.1-8.9-6.7-.6-5.9,8.4-12,7.7-6.9,0-1.6,15.2-9.5,16.6-37.5,2.8-102.7,39.6-116.1-15.3-3.1-14.8-18.9,11.2-12.5,17.2,24.6,48.6,88.7,19.2,130.1,17.9,6.5-1.8,11.4-1.8,13.8,5.7,27.9,46.7,103.8-8.6,68.8,43.3-28.7,2.5-75.6-3.8-104.6,6.5,4.1-4.5-8.1-1.6-10.2-1.3,3.5,1.3-3.8,4-1.5,8.7,1-7-1.2-4.8-6.5-6.4-2.2-.7-4.6,2.7-6.3,3.9-16.1,6.4-15.6,25-22.1,38.7-1.9,4.9-20.5-11-28.3-10.2-5.8-3-2.5,6,0,7.6,4.4,1.6,7,5.1,9.9,8,12.1.2,14.6,18.2,26.4,13.5-.2-4.9,1.2-5.3,6.1-6,1.7-10.4,10-4.9,6.6-17.4,4.8-13.6,12-26.1,27.9-28.1,20.9-6.2,9.1,5.4,7,17.5,3.3-1.6.6-9.8,7.6-5.8.3,3.9-3,7.8-3.7,11.9,2.3,6-11.1,19.5-1.2,19.8,5.3.3,9.7-3,13.5-5.9,3.6-1.4,5.7,2.5,8.7,2.7,4.9,4.6,11.6-3.5,7-9.3-5.3-9.7,3-11.2,10.7-9.2,2.3-3.9,11.8-5.4,5.8-10.2,1.9,5.5,6.4,2.6,11.2,1.7,7.2,1.3-4.6,7-7,6.8-1.2,2.5,3.2.9,2.7,3.2-4.3,4.9-.3,12.8-5.7,17.9,6.5-6.7,2.7-16.8-2.5-7.5-2.4,7.2-2.8,15.1-3.7,22.5-.4,1.9-3.5,3.3-1,5.7,1.9,5.9,14.4,2.6,9.7-3.3,1.4-7.8,5.4-17.4,9.7-24.9-.9.5-1.7.9-2.3,1.7,5.2-5.8,12.8-10.6,16-17.7,4.5-4.6,11.7-7.8,18-3.4-1.5,8.8-5.2,20.4-7.4,29.6-8,5.3-2.2,18.1.6,25.2,9.7,20.7,32,10.8,50.5,12.7,26.8,1.2,53.6.7,80.5,1.5,4.3-1.4,2.5-14,.7-16.8,2.1,4.1,5.8.4,8.5-2.8,7-8.5,14.2,5.3,8.6,10.7-1.9.8-3.7,2.6-3.3,4.6.4,2.6,3.6,0,4.8,1.9-1.9,5.7-10.7,10.3-9.7,15.6.8,1.6-5.2,4.7-1.1,5.3-4.5-2-6.4,5.9-4,9.5,4.6,6.9,12.4-6.9,19.1-5.5-.6,2.7.9,3.3,2.2,5-4-6.1-4,20.3,2.6,19,9.3-6.9,6.6-17.4,23.6,0,2.5-10.5.8-21.7-2.3-30.3.9-2.1-3.6-5.8,1.4-7.5,12.4-6,24.5-13.5,35.2-21.4,20-15.6,21.4-44.4-.3-59.3-3.5-5.7-9.3-20.4-15.7-28.4-4-7.4-18.6-20.3-5.4-26,17.5-6.2,80.4-6.5,45.2-34.5,17.4-.7,34.6,12.6,47.3,23.8-3.6-2.2,2.9,5.8,3.4-.7-1.1,24.8,22.9,57.8,51.4,65.9,21.2,4.8,64.1,28.1,80.4,16.2Z" style="fill: #060708; stroke-width: 0px;"/>
  <path d="M505.8,77.6c0,30.9-31.6,55.9-70.6,55.9s-21.5-2-30.8-5.6l-31.3,11.3,4.3-29.5c-8.1-9.1-12.8-20.2-12.8-32.2,0-30.9,31.6-55.9,70.6-55.9s70.6,25,70.6,55.9Z" style="fill: #fff; stroke-width: 0px;"/>
  <g>
    <path d="M416.2,82.9l1.8-8.6-4.9-1.1-1.8,8.6-4.8-1,4.4-20.4,4.8,1-1.7,7.8,4.9,1.1,1.7-7.8,4.8,1-4.4,20.4-4.8-1Z" style="fill: #000; stroke-width: 0px;"/>
    <path d="M441.7,72l-2.7,12.5,4,.9-.7,3.2-13.1-2.8.7-3.2,4.4,1,2-9.3-4.3-.9.7-3.2,8.9,1.9ZM440.6,63.2c.8.2,1.4.6,1.8,1.2s.5,1.3.4,2-.6,1.3-1.2,1.7c-.6.4-1.3.5-2.1.3-.8-.2-1.4-.6-1.8-1.2s-.5-1.3-.4-2,.6-1.3,1.2-1.7c.6-.4,1.3-.5,2.2-.3Z" style="fill: #000; stroke-width: 0px;"/>
    <path d="M459.3,70.7l-3.4,12.8-3.8-.8,2.2-13,4.9,1.1ZM453.5,85.7c.7.2,1.3.6,1.7,1.2.4.6.5,1.3.4,2-.2.7-.5,1.3-1.2,1.7s-1.3.5-2.1.4c-.7-.2-1.3-.6-1.7-1.2s-.5-1.3-.4-2c.2-.7.6-1.3,1.2-1.7.6-.4,1.3-.5,2-.4Z" style="fill: #000; stroke-width: 0px;"/>
  </g>
</svg>