<?xml version="1.0" encoding="UTF-8"?>
<svg id="Layer_1" data-name="Layer 1" xmlns="http://www.w3.org/2000/svg" version="1.1" viewBox="0 0 100 26.9">
  <g style="opacity: .9;">
    <path d="M95.7,13c0-.9,0-1.8-.5-2.6q0-.1-.2-.1h-4.9s0-.2-.1-.2c0-.2-.3-.1-.4-.2-.1-.1-.3,0-.4,0h-8.1c-.3,0-.5,0-.6.3-.1,0-.2,0-.2.2v.7h-9.4c-.1.2-.4,0-.5.1-.1,0-.1-.2-.1-.3v-.9h0c0-.1,0-.2-.1-.3,0,0-.2-.1-.3-.2h-.2c-.3-.1-.6,0-1,0h-1s-.2,0-.1.1h0c-.3-.1-.6,0-1,0h0c0-.1.1-.2.2-.4v-1h0v-.7s-.1-.3.2-.3c.8,0,1.6.2,2.4.2h1.9c.1,0,.2-.1.2-.2,0,0,0-.1.1-.2v-.3h0v-1.5c0-.3,0-.5-.3-.6,0,0-.1-.2-.2-.2h-3.3s-.2,0-.3.1l-1.1.4c0,0-.2,0-.3.1-.4.1-.7.2-1.1.2h-1.8c-.2-.1-.4,0-.6,0-.2-.2-.3,0-.5,0h-2.7c0,0,0-.2,0-.2v-.6c0-.2,0-.3-.2-.3h-1.2c0,0-.3-.1-.4,0,0,0-.2,0-.2.2s0,.4,0,.6h0v.5h-3c-.2,0-.3,0-.3.3h-1.2c-.4,0-.8-.2-1.3-.3,0-.1-.2,0-.3,0h0c-.2,0-.4-.2-.6-.2h-.9c0,0-.3-.2-.4,0h0c0-.1-.2-.1-.3-.1h-.3c-.4,0-.9-.2-1.3-.2h-.9q0,0,0,.2v3.4s0,.1.2.2c0,.1,0,.2.2.2h.4c2.1-.1,4.1-.3,6.2-.5.2,0,.3,0,.2.2,0,.4,0,.7.5.8h0v.2h-9.1c-.3.1-.6,0-.9,0h-28q-.3,0-.3-.3v-.6c0-.1,0-.5-.4-.3h0c0-.2-.2,0-.3-.1h-1.8q-.2,0-.3.1h-.4v1.3h-1.2s0-.2-.2-.2h-1.3c-.3,0-.5.2-.8.1h-2.6c-.2,0-.4,0-.5.2,0,0,0,0,0,.2h0v.2h0v.5h0v.3h0c0,.2,0,.3,0,.3.2.2.5.2.8.2h2.7s0,0,.2.1c.2.2.3.5.7.4h.2c.3,0,.4-.2.5-.3,0,0,.2-.2.3-.3,0,0,.3-.1.4-.1h.7c0,.2.2,0,.3,0,.3.1.6,0,1,0h.3v-.2h21.6v1.3h0v.2h0c.4.3.8.6,1.3.7,0,0,0,.1.2.1.2,0,.4.2.5.3h0c.2,0,.4.2.6.1h1.5c0,0,.2,0,.2.2h0v.5q0,.1.2.1h.3v.3c.2.1.2.4.3.6h0v.4c0,.1.2,0,.3,0q.2,0,.2-.2v-.3c0-.3,0-.4.3-.4h0c.3,0,.2-.2.2-.4h0c0,0,0-.1,0-.2v-.6h2.9c0-.1.2,0,.3,0,.3.1.6,0,1,0h.2c.3.2.7,0,1.1,0h0c.3.2.7.2,1,.2s.3,0,.3-.1h0c.2.1.4.1.6.2h.3c.2,0,.4,0,.5-.1h0c.3.1.7,0,1,0h0c0,0,.3.1.5.1h2c.5,0,.9.2,1.3.5.2.2.4.4.8.4s.8,0,1.2.1c0,0,0,0,.2.1h0v.8c0,.3,0,.5,0,.8,0,.1,0,.1.2,0h2c.3,0,.5.1.8,0h.2c.4,0,.8,0,1.1.1h2c0,0,.2-.1.2-.2v-1.5c0-.1.2-.2.4-.2s.2,0,.2.1h0v.5c0,.2,0,.3.2.5,0,0,0,.3.3.2h3.2c.2,0,.2-.2.3-.3.1,0,.2-.1.3-.2,0,0,.1-.2.3-.1.2,0,.3.3.5.2h0s.1.2.2.3c0,.1,0,.2.1.4,0,.3.1.5.2.8,0,.1,0,.3.1.4,0,.4.1.8.2,1.2v.3h0c0,.1-.1.3-.2.4,0,.1-.1.3,0,.4,0,.2.2.2.3.2h4s0-.2.2-.2h11.9c.4,0,.6.2.6.6s0,.5.5.5.2,0,.2.2v.8c0,.3.1.4.4.4h.5q.2,0,.2-.2v-1.2h.4q.2,0,.2-.2v-.6c0-.3,0-.4.4-.3h3.6q.6,0,.7-.6s0-.2.1-.2c.2,0,.4.2.5,0,0,0,.1-.1.1-.2.1-.3.2-.6.2-.9.3-1.8.3-3.7.1-5.5l.2.3Z" style="fill: #fff; stroke-width: 0px;"/>
  </g>
</svg>