<?xml version="1.0" encoding="UTF-8"?>
<svg id="Layer_1" data-name="Layer 1" xmlns="http://www.w3.org/2000/svg" version="1.1" viewBox="0 0 53 53.1">
  <g style="opacity: .9;">
    <path d="M51.2,25c-1.7-1.4-4-2.3-6-2.7-2.2-.8-5.3-1.1-7.9-1.3h-.9c-.6-.2-1.4.2-1.8-.2-1.8-3.8-1.9-8.1-3-12.1-.5-2.4-1.6-4.5-2.6-6.7-.6.4-1.3,0-2,.1-1,2.8-2,5.9-3,8.8-.4-1.8-.8-3.6-1.1-5.4,0-.5,0-1.5-.5-1.6-1.5-.4-2.3-.1-2.7,1.5-.7,1.3-1.7,2.4-2.3,3.8-.8,2.2-1.3,4.6-2,6.8-.4.7,0,2.7-1.1,2.6-4.1,0-8.9.6-12.6,1.8.9,6.4,1.5,12.9,2.6,19.3.6,7.3-4.1,5.2,5.1,6.9,9.1,1.5,18.1,3.4,27.2,4.9h0c1,.5,8.9-6.1,9.2-7.3.4-2.4,1.2-4.7,1.9-7.1,1.1-3.9,2.9-7.9,3.5-11.8v-.3ZM33,17.3c0,.9.2,2,0,3-2.3-.6-5.2,0-7.4-1.3-.2-1.6-1.1-3.5-.6-5,1.1-2.8,1.8-5.9,2.9-8.6,1,1.1,1.5,3.8,2.4,5.5.8,2.2,2.1,4.2,2.6,6.5h0ZM21.2,7c.4,2.6.9,5.2,1.3,7.7-.5,1.5-1.3,2.8-1.7,4.4-1.6-.2-3.1-.5-4.7-.6.9-1.3,4.8-13.9,5.2-11.4h-.1Z" style="fill: #fff; stroke-width: 0px;"/>
  </g>
</svg>