<?xml version="1.0" encoding="UTF-8"?>
<svg id="Layer_1" data-name="Layer 1" xmlns="http://www.w3.org/2000/svg" version="1.1" viewBox="0 0 46.4 53.5">
  <g style="opacity: .9;">
    <path d="M44.1,35.8c-.2-2.7,0-5.3-.1-7.9.4-1.1-.8-1.9-1.5-2.6-.7-.4-.4-1.1-.4-1.6.1-1.9,0-3.9,0-5.8.2-.8-.2-1.7-.2-2.6s-.4-1.3-.6-2C34.8-1,11.6-1,5.2,13.6c-1,3.2-.5,6.7-.6,10,.5,1.5-1,2.2-1.9,3.2.4,3.2-.8,7.2.5,10,.8.4.4,1,.4,1.6s1,.8,1,1.6c.7,1.6,1.4,3.3,2,5,.3.5,2.6-.2,3.4-.4,1.7-.5,2.5.5,3.1,2,0,.7.9,1.1,1,1.9,0,.2,0,.5.3.6.5.5.5,1.4,1.1,1.8,6.3-.2,8.1.3,15.6-.5.3-1.4,2.6-2.1,3.3-3.5.7-.7,1.6-.3,2.5-.4h0c.7,0,.9-.3,1-1.2.4-1.7,3.6-3.2,4-4.8,0-1.1,1.3-1.1,1.1-2.1-.4-1.2.9-1.6,1.1-2.5h0ZM5.5,37.9c-.4,0-.5-.2-.4-.5.4-1.1-.9-1.3-1-2.2.3-2-.7-6.8.5-8.1v7.2c0,1,0,1.1,1.1,1.2.4,0,1.4,3,0,2.4h0ZM14.6,43.6c-.6-1-.2-.9-1.7-1.2-1.8-.6-5,0-5-2.5,2.3,1,4.9,1.6,7.1,2.2.4,0,1.4.5,1.4.5v5c0,1.1-.6-4.3-1.7-4.1h-.1ZM14.2,34.5c-1.8,0-3.2-1.5-3.2-3.2s1.5-3.2,3.2-3.2,3.2,1.5,3.2,3.2-1.5,3.2-3.2,3.2ZM29.1,31.2c0-1.8,1.5-3.2,3.2-3.2s3.2,1.5,3.2,3.2-1.5,3.2-3.2,3.2-3.2-1.5-3.2-3.2ZM30.1,48.2c0-2.1-.2-4.1,0-5.8.8-.2,1.5-.3,2.3-.5,2.1-.5,4.1-1.2,6-2-6.9,3-7.6,7.3-8.5,8.3h0ZM42.2,35.7c-1.3.7-.3,2.1-1,2.1h0c-.7.4-1.2-.2-.8-.9,0-.7,0-1.7,1-1.4,1.4-2,.2-5.9.6-8.4.7-.3.5,8.1.2,8.5h0Z" style="fill: #fff; stroke-width: 0px;"/>
  </g>
</svg>