<?xml version="1.0" encoding="UTF-8"?>
<svg id="Layer_1" data-name="Layer 1" xmlns="http://www.w3.org/2000/svg" version="1.1" viewBox="0 0 57.3 40">
  <path d="M52.4,14.9c-.6-.7-1.3-1-2.1-1.1s-1.6,0-2.3-.2h-8.7c0,0-.2,0-.3,0,0,0,0-.2-.2-.4-.3-.6-.6-1.2-.9-1.7-.5-1.2-1-2.5-1.5-3.7-.6-1.5-1.5-1.8-2.9-2h0c-.6-.1-1.2-.3-1.8-.3h-.6c-1.5-.2-3.1-.2-4.7-.1h-1c-.5,0-1,0-1.5.2h-.3c-.2,0-.4,0-.6.1h0c-.4.1-.8.1-1.1.3h-.4c-.3,0-.6.2-.8.3-.3,0-.6.2-.8.3,0,0-.3.1-.3.2h-.3c-.3.1-.6.3-.9.4,0,0-.3,0-.4.2,0,0-.3.2-.4.3,0,0-.3,0-.4.2h0c-.2,0-.3.2-.5.3,0,0-.2,0-.2,0-.2,0-.4.3-.6.4-.2,0-.3.2-.5.3,0,0-.2.2-.3.2h0c0,0-.3.2-.4.3,0,0-.2.2-.4.3h0c-.6.4-1.1.9-1.5,1.5-.6.7-1,1.6-.9,2.5,0,.8.3,1.6.5,2.4,0,.5.4,1,.5,1.5.2.8.4,1.5.6,2.3,0,.2,0,.3-.2.4-.4.2-.8.5-1.2.8,0,0-.2,0-.3.3h-.2c-1,.6-2.1,1.3-3,2.1-.9.7-1.7,1.5-2.5,2.4-.4.5-.7,1.1-1.1,1.6-.3.5-.5,1-.7,1.5,0,.3-.2.5-.2.8h0c0,0,0,.3,0,.5h0c-.2.6,0,1.1.2,1.6h0c0,.3.3.6.5.8l.2.2c.2.2.4.5.7.6.3.2.6.4.9.4s.2,0,.4,0h0c.2,0,.3,0,.5.2.5.2,1,.3,1.6.4,1,0,2,.2,2.9,0h.6c.8,0,1.7-.2,2.5-.3.9,0,1.8-.3,2.8-.5.6,0,1.1-.3,1.7-.4.6,0,1.2-.3,1.8-.4.4,0,.8-.2,1.1-.3.8-.2,1.7-.4,2.4-.8h.4c.9-.4,1.9-.6,2.8-.9,0,0,.3,0,.4-.2.9-.3,1.8-.6,2.7-.9,1.5-.6,3-1.1,4.6-1.6.6-.2,1.2-.4,1.8-.7.5-.2,1-.4,1.5-.6,1.1-.4,2.1-.9,3.2-1.4l1.2-.6c.7-.3,1.4-.6,2.1-1,.8-.4,1.7-.9,2.5-1.5.4-.3.8-.5,1.2-.8.8-.7,1.7-1.4,2.4-2.2s1.4-1.6,1.7-2.6c.4-.9.1-1.7-.5-2.4l-.4.3ZM39.3,14.2h0c0,0,.2.2.2.3,0,.4.2.6.3.9,0,0,0,0,.2.2v.2c0,.2.2.4.3.6,0,0,0,.2.2.3h0c0,.2.2.3.3.5h0v1s0,0,0,.2c0,.4-.3.6-.6.9-.2.2-.4.4-.7.6-.4.4-.9.6-1.4.9,0,0,0,0-.2,0h0q0,0-.2,0h0s0,0-.2,0h0c0,0,0,0,0,.1h0s-.2,0-.2,0c-.3,0-.6,0-.7.4h0c-.3,0-.6.3-.9.4-.3,0-.6.3-1,.4h0c0,0-.4,0-.5.2,0,0-.2,0-.3,0-.2,0-.3,0-.5,0-.2,0-.2,0,0,.2l-.6.3c-.4.2-.9.4-1.3.5-.3,0-.6.2-.9.3-.4,0-.7.3-1.1.3s-.2,0-.3,0h-.4c-.3.2-.7.3-1,.4-.3,0-.6.2-.9.3-.3,0-.6.2-.9.3h-.2c0,0-.3,0-.4.2h0c0,0-.2-.2-.3,0h-.2c-.2,0,0-.2-.2-.2v.3c0,0,0-.2-.2-.2,0,0,0,.2,0,0h0c0,0,0,.2,0,.2h-.2c-.2,0-.4,0-.5.2h0c-.3,0-.5,0-.8.2h-1.8c-.4,0-.8,0-1.2,0-.9,0-1.8,0-2.8,0-.6,0-1.2,0-1.7-.4h-.2c0-.3-.3-.4-.5-.6-.2-.3-.3-.4-.2-.8,0-.2,0-.4,0-.6,0-.5-.2-1-.3-1.5,0-.4-.2-.7-.3-1.1h0c0,.3.2.4.4.6h0c.2,0,.3,0,.4.2.2,0,.4.2.7,0h1.7c.9,0,1.9-.2,2.8-.3.2,0,.4,0,.6,0h0l1.8-.2h0s-.3,0-.2,0c0,0,.3-.2.4-.2.4,0,.7,0,1.1-.2,0,0,.3,0,.4,0,.2,0,.4,0,.6-.2.3,0,.6-.2.9-.3.2,0,.5,0,.6-.3h0c.2.2.3,0,.5,0,.5,0,.9-.3,1.4-.4.6-.2,1.2-.4,1.8-.6.4,0,.8-.2,1.2-.4.6-.3,1.2-.5,1.8-.8.7-.3,1.5-.6,2.2-1,.3,0,.6-.3,1-.4.2-.2.6-.3.8-.5.4-.3.9-.5,1.3-.8,0,0,.2,0,.3-.2,0,0,.2,0,.3-.2h0c.4-.3.8-.6,1-1.1,0,0,0-.3,0-.5,0,0,0-.2,0,0h0l-.3,1Z" style="fill: #fff; stroke-width: 0px;"/>
</svg>