<?xml version="1.0" encoding="UTF-8"?>
<svg id="Layer_1" data-name="Layer 1" xmlns="http://www.w3.org/2000/svg" version="1.1" viewBox="0 0 94.5 34.5">
  <g style="opacity: .9;">
    <path d="M90.5,12.4c0-.4-.3-.7-.7-.7h-2.1c-.5,0-1,.2-1.3.5-.4.3-.8.7-1.2,1h-7.9c-.2,0-.3,0-.3.3h0s0-.2-.2-.3c0,0,0,0-.2-.1-.4,0-.9-.2-1.3-.3h0c-.7-.2-1.4-.4-2.1-.5h-.2s0,0,0,0h-.4c-.5-.1-1-.3-1.6-.5h-.4c-.9-.2-1.8-.4-2.7-.6h0c-.3-.2-.7-.3-1-.5q-.1,0,0,0c-.3-.2-.6-.3-.9-.5-.2-.1-.5-.3-.7-.3h-.8c0,0-.3,0-.4.1h0c-.2-.1-.3-.4-.6-.4h-1.4c-.3,0-.4-.2-.3-.5,0-.2.2-.3.4-.3h.3v-.9c0-.3-.2-.3-.7-.3h0v-.2h-.2c-.3,0-.6,0-.9,0h0c-.3,0-.4.2-.4.4,0,.3-.2.4-.4.3h-1c-.7,0-1.4-.2-2.1-.5-.6-.2-1.1-.5-1.4-1.1-.4-.6-.8-1.2-.8-2s0-.5-.6-.5-.3,0-.3.3v1.4h0c0,.4.2.9.3,1.3,0,.2.2.4.2.6h0v.4h-.6c-.4.2-.8.3-1.3.5h-1.1c-.7.1-1.4.1-2.2.2-.6,0-1.3.1-1.9.2-.8,0-1.7.2-2.5.3-.7,0-1.5.2-2.2.3h0c-.6,0-1.2.1-1.8.3h0c-.7,0-1.5.2-2.2.4-1.5.3-3.1.6-4.6,1h-.4c0-.1-.2-.2-.3-.4,0-.1-.2-.3-.3-.3h-.8c-.6,0-1.2.2-1.8.3-.4,0-.8.2-1.2.2s-.5.4-.8.5h-.2c-.2,0-.4-.1-.7-.1h-1.6c-.3,0-.4.1-.4.4s0,.4-.2.6c0,.2,0,.3-.3.3s-.4,0-.4.3c0,0,0,.1-.2.2h-1.6s-.3-.1-.4,0c-.4,0-.8-.2-1.2,0h-1s-.3-.1-.4-.1h-4.3s0,.2-.3.2-.4,0-.5.2c0,0-.2.1-.3.2h0c-.4,0-.7,0-.9.4h-1.3c-.4-.2-.7-.4-1.2-.3h0c0-.1-.3-.2-.5-.2h-5.1c-.2,0-.4,0-.5.2h0c-.2.2-.4.3-.4.6,0,.5,0,1,.3,1.5h0c0,.1,0,.3.3.3.5.2,1,.2,1.5.2h1.1c.3,0,.6.1.9.1h2.1c.4,0,.8-.1,1.2-.3h.4c.4-.1.7-.3,1.1-.2h0c.2.1.5.2.5.5h0c.2,0,.3.2.4.3,0,.1.3,0,.3.2.2.2.4.3.6.4h0c0,.1.2.2.3.3h0c0,.3-.2.5-.5.5s-.3.2-.3.4h0c0,.3-.2.8.4.9,0,0,.2.2,0,.2-.3,0-.2.1,0,.3v.6h0v.3c0,.3.2.6.3.9h0c0,.2,0,.3.3.3h.8s.2,0,.2.2c0,.3.3.6.6.7h1.2c.6-.2,1.1-.5,1.7-.7.3,0,.5-.1.7.1s.3.1.4.2c.3,0,.6,0,.9.2h.3c.3.2.7.1,1.1.3.4.2.9.3,1.4.2h0c.6.2,1.2.3,1.8.5.4,0,.8,0,1.1.4,0,0,.2.1.3.1.2,0,.3,0,.5.1.3.1.6.3.9.2h.7c.2.2.4.4.7.5h.7c.4,0,.6,0,.7-.4,0-.3.3-.6.4-.9h0c.3-.5.7-.8,1.3-1s.6-.2.7-.6c-.3,0-.2-.4-.4-.6,0-.3-.2-.6,0-.9v-.2c0-.3-.3-.5-.4-.7h0c0-.2-.2-.4,0-.7h0c.3-.4.7-.5,1.1-.6h1.7c.8,0,1.6,0,2.4.1h0c.7.3,1.4.6,2.1.9.3.1.6.3.9.4h0c0,.1,0,.2.2.2,0,.1.4.2.4.4,0,.4.4.7.4,1.1s0,.4.3.5c.2.2.4.4.6.7,0,.1,0,.3.3.4.5.2.7.7.8,1.1h-.2s-.2,0-.2.1,0,.1.2.1h0c.2.7.6,1.2.8,1.8h0c0,.3.2.2.4.1h-.2c.6.2.8.5.6,1.1v.2c.2.4.3.8.4,1.3h.2-.2s-.2,0,0,.2c0,.5.3,1.1.6,1.6h2.4c1.2,0,2.4-.2,3.7-.2h1.8c1,0,2,0,3-.3.6,0,1.2,0,1.8-.2.4,0,.7,0,1.1-.2,0,0,.3,0,.2.2,0,0,0,.3.2.2.3,0,.6,0,.9.2.3.3.7.3,1.1,0,.4,0,.8-.2,1.1,0h.3c.4,0,.7,0,1.1-.2.3,0,.7,0,.8-.3.3-.4.7-.3,1.1-.4.2,0,.3,0,.4-.3h0c.2-.2.2-.4,0-.6,0,0,0-.2,0-.3h0c0-.3-.2-.4-.4-.5s-.5-.2-.5-.5h0c-.3-1.1-.7-2-1.2-2.9h0c-.3-.7-.8-1.3-1.1-2-.3-.5-.8-.9-.7-1.6v-.2c0,0,0-.2,0-.3,0-.3.3-.7.2-1h0c.2-.3.2-.5.4-.7,0,0,.2-.1.3-.2.2,0,.4-.3.6-.4h0c.4-.2.8-.4,1.1-.5.7-.3,1.5-.3,2.2-.5.6-.1,1.1.1,1.6.2.3,0,.6.3.9.2h0c.9.2,1.8.4,2.6.6.2,0,.4,0,.5.2.2.1.3.1.4,0h.2c.3,0,.7.1,1-.2h1.4c.4,0,.6.2.6.6v.2c0,.4,0,.6.5.7,0,.1.3.1.5.2.8.4,1.5.8,2.3,1.1,1,.5,2,.9,2.9,1.4.7.3,1.4.7,2.1,1,.3.1.6.2.8,0h2.1c0,0,.2,0,.3-.1h0c.2,0,0-.2,0-.3,0-.3-.3-.5-.3-.8,0-.7,0-1.3,0-2h0v-2.3c0-.6.2-1.2.2-1.8s.2-1.1.2-1.7v-1.2l.3-.6h.2Z" style="fill: #fff; stroke-width: 0px;"/>
  </g>
</svg>