<?xml version="1.0" encoding="UTF-8"?>
<svg id="Layer_1" data-name="Layer 1" xmlns="http://www.w3.org/2000/svg" version="1.1" viewBox="0 0 137.6 23">
  <defs>
    <style>
      .cls-1 {
        opacity: .9;
      }

      .cls-2 {
        fill: #fff;
        stroke-width: 0px;
      }
    </style>
  </defs>
  <g class="cls-1">
    <path class="cls-2" d="M133.9,10v-2.9h0c0-.1-.2-.1-.4-.1h-18.2c-.8,0-1.7-.1-2.4,0h-7.1c0-.1,0-.2-.3-.3-.3-.2-.6.1-.9-.1v-.2c-.2-.2-.4,0-.6-.1-.3-.1-.5,0-.8,0-.9-.2-.7.4-.8,1,0,0,0,.1-.2.2,0,0-.3.2-.5.1-3,0-6.9,0-9.4.1-2.5,0-5,0-7.5-.1-.8,0-1.6,0-2.4,0-6.8-.2-13.6-.5-20.4-.9C44.9,5.8,16,2.5,6.9,0c.9,1,4.4,2.9,6.7,3.6,8.4,2.6,35.8,5.1,50,6.1,10.5.7,29.1,1.1,38.4,1.1,0,0,.4.8.5,1,0,.2,0,.5.3.5h1.6c.2-.1.2-.3.3-.5,0-.1.4-.2.6-.2h.5s.2,0,.3-.1h15.4c.8-.1,1.5,0,2.3,0h5.6c1.3,0,2.6-.1,3.9,0,.3,0,.5.2.8,0,.1-.3,0-.8,0-1.1h0v-.4h-.2ZM103.9,7h0ZM103.2,7h0ZM104.4,12.1h0Z"/>
  </g>
</svg>