<?xml version="1.0" encoding="UTF-8"?>
<svg id="Layer_1" data-name="Layer 1" xmlns="http://www.w3.org/2000/svg" version="1.1" viewBox="0 0 62 21.7">
  <g style="opacity: .9;">
    <path d="M58.5,6.1c0-.2,0-.3-.2-.5,0,0,0-.2,0-.3h0c0,0-.2,0-.3,0h-2.8c-.2,0-.4,0-.5,0,0-.2,0-.4,0-.5-.2-.6-.4-1.1-.5-1.7,0-.3-.2-.5-.5-.6-.8-.4-1.2-.2-1.3.6,0,.3-.2.3-.4.3h-4.2c-.2,0-.5,0-.6.2h0c-.2,0-.2.3-.4.3s0-.2,0-.3c0,0,.2-.2,0-.3h-.3c0,.2-.3.2-.4.3h-8.5v-.9c0-.5,0-.7-.6-.7h-10.5c0-.2-.2-.2-.2-.3h-.6c-.2,0,0,.2,0,.3-.4,0-.5.3-.4.6v1.2h-2.8c-.3,0-.6.6-.9.6h0c0-.4,0-.6-.5-.5h-6.2v.3h-1c-.2,0-.3,0-.3.3v.4c-.2.2-.4,0-.6,0h-7.3c-.4,0-.8.5-.8,1.8s.2,1.6.5,1.9c0,.1.2,0,.5,0h7.5c.2.2.5.7.7.7h.6c.2,0,.3.2.5.2.6.5,1.3.3,1.9.3h0c0,.2.2.1.3.1h7.7v1.7c0,.2,0,.1.2.1h6c.4.1.5-.3.7-.5h1.8c.3.2.5.6.6.9,0,.2,0,.3.2.5h0v.6c0,.2,0,.5.4.4h1.2c.5,1.7,1,3.5,1.1,5.3v.3c0,.5,0,.6.5.6,1.7,0,3.4,0,5.1-.2.2,0,.4,0,.4-.2,0,0,.2-.2.2-.3,0-1-.2-2-.5-3-.3-1.1-.9-2-1.4-3v-1.4c.2-.4.8-.5.9-.9h3.5s.2,0,.2-.2c0,0,.3-.2.4-.3h7.4v-.7h0c.2-.2.5-.1.6-.4,0,0,.2,0,.2-.2,1-.1,2.1,0,3.1,0s.6-.1.8-.5h0c.2-.1.3-.2.4-.4v-1.3c0-.3,0-.6,0-.9v.3h-.3Z" style="fill: #fff; stroke-width: 0px;"/>
  </g>
</svg>